<svg width="522" height="500" viewBox="0 0 522 500" version="1.1" xmlns="http://www.w3.org/2000/svg" xmlns:xlink="http://www.w3.org/1999/xlink">
<title>Component</title>
<desc>Created using Figma</desc>
<g id="Canvas" transform="matrix(2 0 0 2 4760 -2610)">
<g id="Component">
<g id="Ellipse">
<use xlink:href="#path0_fill" transform="translate(-2380 1305)" fill="#8FD8D9"/>
</g>
<g id="Gen">
<use xlink:href="#path1_fill" transform="translate(-2364 1337)"/>
<use xlink:href="#path2_fill" transform="translate(-2364 1337)"/>
<use xlink:href="#path3_fill" transform="translate(-2364 1337)"/>
</g>
</g>
</g>
<defs>
<path id="path0_fill" d="M 261 125C 261 194.036 202.573 250 130.5 250C 58.4268 250 0 194.036 0 125C 0 55.9644 58.4268 0 130.5 0C 202.573 0 261 55.9644 261 125Z"/>
<path id="path1_fill" d="M 118.498 89.5027C 119.739 89.5027 120.693 90.1212 121.361 91.3584C 122.124 92.5004 122.505 93.9754 122.505 95.7836C 122.505 97.9724 122.172 99.6853 121.504 100.922C 120.836 102.16 119.786 103.254 118.355 104.206C 112.726 107.917 103.758 114.008 91.4497 122.477C 87.7288 142.177 82.9106 157.688 76.9952 169.013C 71.0799 180.338 63.5902 186 54.5264 186C 49.6605 186 45.701 184.477 42.6479 181.432C 39.5948 178.482 38.0683 174.58 38.0683 169.727C 38.0683 165.254 39.0701 160.734 41.0737 156.166C 43.0773 151.598 46.7982 146.316 52.2365 140.321C 57.7703 134.325 65.5461 127.474 75.5641 119.765L 75.9934 117.053C 68.4561 120.193 61.0619 121.764 53.8108 121.764C 43.125 121.764 33.7272 119.718 25.6174 115.625C 17.5076 111.438 11.2106 105.538 6.72635 97.9248C 2.24212 90.3116 0 81.4612 0 71.3737C 0 57.2893 2.67146 44.8703 8.01437 34.1166C 13.3573 23.2678 20.7038 14.8933 30.0539 8.99309C 39.4994 2.99769 50.0421 0 61.6821 0C 72.8449 0 81.1932 2.61704 86.727 7.85112C 92.3561 12.99 95.1707 19.8419 95.1707 28.4068C 95.1707 34.0215 94.1212 38.5418 92.0222 41.9678C 90.0186 45.2985 87.1086 46.9639 83.2923 46.9639C 80.7162 46.9639 78.6172 46.3454 76.9952 45.1082C 75.4687 43.8711 74.7054 42.1581 74.7054 39.9693C 74.7054 39.0176 74.8962 37.3998 75.2779 35.1159C 75.8503 32.4513 76.1366 30.3576 76.1366 28.835C 76.1366 24.8381 74.8962 21.7452 72.4156 19.5564C 70.0304 17.3676 65.9755 16.2732 60.2509 16.2732C 53.286 16.2732 46.7982 18.2717 40.7874 22.2686C 34.8721 26.2655 30.1016 32.2609 26.4761 40.2548C 22.8505 48.1535 21.0377 57.67 21.0377 68.8043C 21.0377 80.2241 24.1385 89.0744 30.3401 95.3553C 36.6371 101.541 45.701 104.634 57.5318 104.634C 64.115 104.634 70.9845 103.159 78.1402 100.209L 80.1438 82.7935L 65.5461 82.7935C 62.8747 82.7935 60.8234 82.175 59.3922 80.9378C 57.9611 79.6055 57.2455 77.4643 57.2455 74.5142C 57.2455 71.8496 57.9611 69.7559 59.3922 68.2333C 60.8234 66.7107 62.7316 65.9493 65.1168 65.9493L 91.8791 65.9493C 93.9781 65.9493 95.6955 66.6631 97.0312 68.0906C 98.4623 69.4229 99.0348 71.3738 98.7486 73.9432C 98.4623 76.9885 97.5082 83.8879 95.8863 94.6416L 94.312 105.49C 101.945 99.7805 108.91 94.8319 115.207 90.6447C 116.447 89.8833 117.544 89.5027 118.498 89.5027ZM 56.1006 172.153C 58.5813 172.153 61.3004 169.346 64.2581 163.731C 67.2158 158.117 69.9827 149.076 72.5587 136.609C 65.3076 142.795 60.0601 148.362 56.8162 153.311C 53.6677 158.355 52.0934 162.78 52.0934 166.586C 52.0934 170.298 53.4292 172.153 56.1006 172.153Z"/>
<path id="path2_fill" d="M 177.539 89.2172C 178.78 89.2172 179.734 89.7882 180.402 90.9302C 181.165 92.0721 181.547 93.6424 181.547 95.6408C 181.547 99.4474 180.64 102.398 178.827 104.491C 175.297 108.774 170.288 112.723 163.8 116.339C 157.408 119.955 150.539 121.764 143.192 121.764C 133.174 121.764 125.398 119.051 119.865 113.627C 114.331 108.203 111.564 100.78 111.564 91.3584C 111.564 84.792 112.947 78.7015 115.714 73.0867C 118.481 67.3768 122.297 62.8565 127.163 59.5257C 132.125 56.1949 137.706 54.5295 143.908 54.5295C 149.441 54.5295 153.878 56.1949 157.217 59.5257C 160.557 62.7613 162.226 67.1865 162.226 72.8012C 162.226 79.3676 159.841 85.0299 155.071 89.7882C 150.396 94.4513 142.429 98.1627 131.171 100.922C 133.556 105.3 138.088 107.489 144.766 107.489C 149.06 107.489 153.926 106.014 159.364 103.064C 164.898 100.018 169.668 96.0691 173.675 91.2156C 174.82 89.8833 176.108 89.2172 177.539 89.2172ZM 141.475 68.5188C 137.945 68.5188 134.939 70.5648 132.459 74.6569C 130.073 78.749 128.881 83.6976 128.881 89.5027L 128.881 89.7882C 134.51 88.4559 138.946 86.4574 142.19 83.7928C 145.434 81.1282 147.056 78.0353 147.056 74.5142C 147.056 72.7061 146.531 71.2786 145.482 70.2318C 144.528 69.0898 143.192 68.5188 141.475 68.5188Z"/>
<path id="path3_fill" d="M 180.055 121.764C 176.43 121.764 173.853 119.86 172.327 116.054C 170.896 112.247 170.18 106.157 170.18 97.782C 170.18 85.4106 171.945 73.6577 175.475 62.5234C 176.334 59.7636 177.718 57.7652 179.626 56.528C 181.629 55.1957 184.396 54.5295 187.926 54.5295C 189.835 54.5295 191.17 54.7675 191.934 55.2433C 192.697 55.7191 193.078 56.6232 193.078 57.9555C 193.078 59.4781 192.363 62.9041 190.932 68.2333C 189.978 72.0399 189.214 75.3707 188.642 78.2256C 188.069 81.0806 187.592 84.6017 187.211 88.7889C 190.359 80.6048 193.889 73.9432 197.801 68.8043C 201.713 63.6654 205.529 60.0015 209.25 57.8127C 213.067 55.6239 216.549 54.5295 219.698 54.5295C 222.751 54.5295 225.041 55.3385 226.567 56.9563C 228.189 58.4789 229 60.7628 229 63.8081C 229 66.2824 228.475 70.9455 227.426 77.7974C 226.472 83.6025 225.708 89.122 225.136 94.3561C 224.563 99.495 224.277 105.252 224.277 111.629C 224.277 115.245 223.514 117.862 221.987 119.48C 220.556 121.002 218.171 121.764 214.832 121.764C 211.683 121.764 209.393 120.955 207.962 119.337C 206.531 117.719 205.816 115.292 205.816 112.057C 205.816 108.25 206.483 101.969 207.819 93.2141C 208.964 85.6009 209.537 80.7475 209.537 78.6539C 209.537 77.1312 209.012 76.3699 207.962 76.3699C 206.722 76.3699 204.957 77.9877 202.667 81.2233C 200.473 84.3638 198.183 88.551 195.798 93.7851C 193.508 99.0192 191.647 104.539 190.216 110.344C 189.167 114.817 187.926 117.862 186.495 119.48C 185.159 121.002 183.013 121.764 180.055 121.764Z"/>
</defs>
</svg>
